<svg width="347" height="63" viewBox="0 0 347 63" fill="none" xmlns="http://www.w3.org/2000/svg">
<g filter="url(#filter0_d_89_46)">
<path d="M4 12C4 5.37258 9.37258 0 16 0H331C337.627 0 343 5.37258 343 12V43C343 49.6274 337.627 55 331 55H16C9.37259 55 4 49.6274 4 43V12Z" fill="#FDFDFE"/>
<path d="M4.75 12C4.75 5.7868 9.7868 0.75 16 0.75H331C337.213 0.75 342.25 5.7868 342.25 12V43C342.25 49.2132 337.213 54.25 331 54.25H16C9.7868 54.25 4.75 49.2132 4.75 43V12Z" stroke="#37417F" stroke-width="1.5"/>
</g>
<defs>
<filter id="filter0_d_89_46" x="0" y="0" width="347" height="63" filterUnits="userSpaceOnUse" color-interpolation-filters="sRGB">
<feFlood flood-opacity="0" result="BackgroundImageFix"/>
<feColorMatrix in="SourceAlpha" type="matrix" values="0 0 0 0 0 0 0 0 0 0 0 0 0 0 0 0 0 0 127 0" result="hardAlpha"/>
<feOffset dy="4"/>
<feGaussianBlur stdDeviation="2"/>
<feComposite in2="hardAlpha" operator="out"/>
<feColorMatrix type="matrix" values="0 0 0 0 0 0 0 0 0 0 0 0 0 0 0 0 0 0 0.25 0"/>
<feBlend mode="normal" in2="BackgroundImageFix" result="effect1_dropShadow_89_46"/>
<feBlend mode="normal" in="SourceGraphic" in2="effect1_dropShadow_89_46" result="shape"/>
</filter>
</defs>
</svg>
